<?xml version="1.0" encoding="UTF-8" standalone="no"?>
<svg
   xmlns:dc="http://purl.org/dc/elements/1.1/"
   xmlns:cc="http://creativecommons.org/ns#"
   xmlns:rdf="http://www.w3.org/1999/02/22-rdf-syntax-ns#"
   xmlns:svg="http://www.w3.org/2000/svg"
   xmlns="http://www.w3.org/2000/svg"
   xmlns:sodipodi="http://sodipodi.sourceforge.net/DTD/sodipodi-0.dtd"
   xmlns:inkscape="http://www.inkscape.org/namespaces/inkscape"
   sodipodi:docname="kernel-notify-tux.svg"
   inkscape:version="1.0.2 (e86c870879, 2021-01-15)"
   id="svg8"
   version="1.1"
   viewBox="0 0 67.733331 67.733331"
   height="256"
   width="256">
  <defs
     id="defs2" />
  <sodipodi:namedview
     inkscape:window-maximized="1"
     inkscape:window-y="27"
     inkscape:window-x="2004"
     inkscape:window-height="1016"
     inkscape:window-width="1836"
     units="px"
     showgrid="false"
     inkscape:document-rotation="0"
     inkscape:current-layer="layer7"
     inkscape:document-units="px"
     inkscape:cy="130.41654"
     inkscape:cx="78.617989"
     inkscape:zoom="1.4142136"
     inkscape:pageshadow="2"
     inkscape:pageopacity="0.0"
     borderopacity="1.0"
     bordercolor="#666666"
     pagecolor="#ffffff"
     id="base" />
  <metadata
     id="metadata5">
    <rdf:RDF>
      <cc:Work
         rdf:about="">
        <dc:format>image/svg+xml</dc:format>
        <dc:type
           rdf:resource="http://purl.org/dc/dcmitype/StillImage" />
        <dc:title />
      </cc:Work>
    </rdf:RDF>
  </metadata>
  <g
     inkscape:groupmode="layer"
     id="layer7"
     inkscape:label="Icon"
     style="display:inline">
    <path
       inkscape:connector-curvature="0"
       id="path956"
       d=""
       style="fill:#ffbb00;fill-opacity:1;stroke-width:0.00146724" />
    <path
       inkscape:connector-curvature="0"
       id="path958"
       d=""
       style="fill:#ffbb00;fill-opacity:1;stroke-width:0.000183405" />
    <path
       inkscape:connector-curvature="0"
       id="path960"
       d=""
       style="fill:#ffbb00;fill-opacity:1;stroke-width:0.000183405" />
    <path
       inkscape:connector-curvature="0"
       id="path962"
       d=""
       style="fill:#ffbb00;fill-opacity:1;stroke-width:0.000183405" />
    <path
       inkscape:connector-curvature="0"
       id="path964"
       d=""
       style="fill:#ffbb00;fill-opacity:1;stroke-width:0.000183405" />
    <path
       inkscape:connector-curvature="0"
       id="path966"
       d=""
       style="fill:#ffbb00;fill-opacity:1;stroke-width:0.00146724" />
    <path
       inkscape:connector-curvature="0"
       id="path968"
       d=""
       style="fill:#ffbb00;fill-opacity:1;stroke-width:0.00146724" />
    <g
       id="g871"
       transform="matrix(1.6843558,0,0,1.6843547,-23.176953,-23.176832)">
      <path
         id="path970"
         style="fill:#000000;fill-opacity:1;stroke-width:0.155031"
         d="m 130.79297,61.505859 c -0.85422,-0.0016 -1.74519,0.03488 -2.67383,0.109375 -20.72322,1.668088 -18.30677,21.174088 -17.69336,31.44336 10e-4,0.02262 6.2e-4,0.04193 0.002,0.06445 0.0421,1.037383 0.0743,1.873381 0.0898,2.558594 2e-5,10e-4 -3e-5,0.0029 0,0.0039 7e-5,0.01314 -5e-5,0.02599 0,0.03906 0.008,0.365365 -10e-4,0.624371 -0.002,0.923829 -0.43075,6.045653 -1.66062,10.820563 -5.81054,16.730473 -0.0126,0.0177 -0.0264,0.0349 -0.0391,0.0527 -4.905873,5.8367 -11.806625,15.27355 -15.076176,25.09766 -1.451387,4.36143 -2.172764,8.79938 -1.69336,13.03515 -0.02107,0.48293 -0.05887,0.8205 -0.123046,1.02344 -0.132517,0.12713 -0.267371,0.25255 -0.392579,0.38477 -1.440242,1.53945 -2.505413,3.40204 -3.691406,4.65625 -1.108475,1.10707 -2.687475,1.52691 -4.423828,2.14843 -1.736353,0.62338 -3.64034,1.54168 -4.796875,3.76172 0,0 -0.002,0.002 -0.002,0.002 -0.0015,0.003 -0.0029,0.007 -0.0059,0.01 -0.544158,1.01545 -0.720704,2.11108 -0.720704,3.22266 0,1.02785 0.151201,2.07132 0.304688,3.07422 0.31937,2.08672 0.644266,4.05996 0.214844,5.39648 -1.373579,3.75641 -1.551381,6.35295 -0.583985,8.23828 0.9705,1.88828 2.962234,2.72011 5.214844,3.19141 4.505216,0.93949 10.606534,0.70715 15.414063,3.25586 l 0.04492,-0.084 c 7.68e-4,3.5e-4 0.0012,0.002 0.002,0.002 l -0.04297,0.084 c 5.147047,2.69134 10.36671,3.64581 14.5293,2.69531 2.93753,-0.66938 5.326,-2.3963 6.61328,-5.03515 0.11406,-0.10282 0.25316,-0.18188 0.43555,-0.23438 3.17212,-0.0979 6.69376,-1.38897 12.23242,-1.69336 3.86787,-0.31206 8.69488,1.36309 14.24609,1.07032 l 0.0684,0.004 c 0.14571,0.60312 0.35698,1.18415 0.64453,1.73633 0.003,0.005 0.006,0.0107 0.01,0.0156 2.16253,4.32537 6.17922,6.30477 10.46289,5.9668 4.28802,-0.33812 8.84835,-2.86612 12.53516,-7.25195 l -0.084,-0.0723 c 10e-4,-0.001 0.003,-0.003 0.004,-0.004 l 0.084,0.0684 c 3.51302,-4.26026 9.34486,-6.02576 13.21289,-8.35743 1.93325,-1.16583 3.50058,-2.62511 3.62305,-4.74609 0.12061,-2.11928 -1.12445,-4.49529 -3.98633,-7.67187 -0.002,-0.002 -0.004,-0.003 -0.004,-0.004 -0.94089,-1.06197 -1.3891,-3.03133 -1.8711,-5.12891 -0.48075,-2.09601 -1.01743,-4.35527 -2.73828,-5.82031 -0.003,-0.003 -0.009,-0.006 -0.0117,-0.01 -0.34106,-0.29767 -0.69104,-0.54836 -1.04297,-0.75781 -0.25889,-0.15335 -0.52104,-0.27961 -0.7832,-0.39258 -0.0249,-0.0235 -0.0602,-0.0492 -0.082,-0.0723 -0.0169,-0.0177 -0.0449,-0.0374 -0.0586,-0.0547 -0.0403,-0.0508 -0.0531,-0.10174 -0.0703,-0.15234 -0.004,-0.0143 -0.009,-0.0288 -0.0156,-0.043 2.30824,-7.02729 1.37132,-14.01869 -1.02149,-20.3418 -2.96265,-7.83527 -8.13613,-14.66249 -12.08789,-19.33203 -3.82317,-4.82284 -7.5672,-9.43629 -8.45898,-15.650392 -0.0732,-0.989976 -0.12789,-2.625975 -0.18359,-4.90039 0.17043,-12.224933 0.29815,-32.227801 -19.7168,-32.25586 z"
         transform="scale(0.26458332)" />
      <path
         d="m 47.932171,46.035495 c -0.01969,0.346156 -0.270314,0.603384 -0.733415,0.882311 -0.925425,0.558263 -2.565765,1.043924 -3.612933,2.31263 -0.909837,1.082482 -2.018984,1.676842 -2.9956,1.753957 -0.976616,0.07712 -1.819182,-0.328149 -2.316329,-1.325312 l -8.62e-4,-0.0021 -0.0012,-0.0025 c -0.308502,-0.586567 -0.180114,-1.511537 0.07953,-2.487739 0.259649,-0.975833 0.63292,-1.978329 0.682963,-2.792549 v -0.0025 c 0.05246,-1.043473 0.11116,-1.954948 0.286269,-2.658417 0.175561,-0.70347 0.451617,-1.179286 0.940602,-1.447137 0.02297,-0.01231 0.04549,-0.0242 0.06805,-0.03528 0.05542,0.90364 0.502931,1.82578 1.293731,2.025089 0.865537,0.228105 2.112918,-0.514373 2.639599,-1.120218 0.105377,-0.0041 0.207924,-0.0094 0.30764,-0.0119 0.462282,-0.01112 0.849499,0.01559 1.24574,0.361785 l 0.0012,0.0012 0.0012,8.61e-4 c 0.304359,0.258008 0.449156,0.745309 0.574673,1.290857 0.125558,0.545999 0.225603,1.140318 0.602196,1.56404 l 4.11e-4,4.1e-4 4.1e-4,8.62e-4 c 0.723612,0.802734 0.956188,1.345001 0.936089,1.691608 z"
         id="path972"
         style="fill:#ffbb00;fill-opacity:1;stroke-width:0.0410187"
         inkscape:connector-curvature="0" />
      <path
         d="m 30.345378,48.594237 -4.11e-4,0.0025 v 0.0029 c -0.08368,1.096838 -0.702241,1.694069 -1.652235,1.911058 -0.949174,0.216988 -2.236753,8.61e-4 -3.522281,-0.671475 -4.1e-4,0 -8.21e-4,-4.11e-4 -0.0012,-4.11e-4 -1.42253,-0.753512 -3.114554,-0.678448 -4.200321,-0.905281 -0.542678,-0.113211 -0.89708,-0.283849 -1.059514,-0.600513 -0.162435,-0.317074 -0.166126,-0.869594 0.179252,-1.811792 l 0.0016,-0.0041 0.0012,-0.0041 c 0.171048,-0.52709 0.0443,-1.103811 -0.03856,-1.645257 -0.08286,-0.540995 -0.123466,-1.033629 0.06153,-1.376586 l 0.0016,-0.0033 c 0.236679,-0.456127 0.583697,-0.619381 1.014394,-0.773611 0.431107,-0.154641 0.941791,-0.276015 1.345005,-0.6805 l 0.0025,-0.002 0.0021,-0.0021 c 0.372861,-0.393369 0.653019,-0.886823 0.980759,-1.236712 0.276466,-0.295334 0.553343,-0.490993 0.970504,-0.493864 0.0049,4.51e-4 0.0094,4.51e-4 0.01436,0 0.07301,4.51e-4 0.150539,0.0066 0.232577,0.01932 0.553753,0.08368 1.036544,0.470853 1.501697,1.10172 l 1.342954,2.447581 4.1e-4,0.0012 8.2e-4,8.2e-4 c 0.357274,0.746129 1.112019,1.566912 1.751501,2.404102 0.639483,0.836821 1.134169,1.677293 1.06977,2.320465 z"
         id="path974"
         style="fill:#ffbb00;fill-opacity:1;stroke-width:0.0410187"
         inkscape:connector-curvature="0" />
      <path
         d="m 37.042921,25.777214 c -0.10788,-0.211246 -0.32815,-0.412237 -0.703062,-0.566057 l -8.2e-4,-4.1e-4 -0.0012,-4.1e-4 c -0.779766,-0.333892 -1.118171,-0.357683 -1.55338,-0.640711 -0.708394,-0.455307 -1.293732,-0.61487 -1.780214,-0.612819 -0.254727,8.21e-4 -0.482381,0.04594 -0.686244,0.116493 -0.592721,0.203863 -0.986091,0.629226 -1.232614,0.862622 l -4.1e-4,4.1e-4 c 0,4.1e-4 -4.1e-4,4.1e-4 -4.1e-4,8.2e-4 -0.0484,0.04594 -0.110751,0.08778 -0.2617,0.198531 -0.15218,0.11116 -0.380244,0.278516 -0.708394,0.524628 -0.291643,0.218629 -0.386397,0.503299 -0.285491,0.83678 0.100496,0.333481 0.422083,0.718236 1.010293,1.050897 l 8.2e-4,8.21e-4 0.0012,4.1e-4 c 0.365067,0.214527 0.614461,0.503709 0.900772,0.733823 0.143156,0.114852 0.293695,0.217399 0.474998,0.294924 0.181303,0.07753 0.392959,0.130029 0.657941,0.145616 0.621844,0.0361 1.079613,-0.150538 1.483648,-0.381883 0.404855,-0.230935 0.747731,-0.513553 1.141142,-0.641121 l 8.2e-4,-4.11e-4 8.62e-4,-4.1e-4 c 0.806388,-0.251854 1.381512,-0.759255 1.561543,-1.241224 0.09024,-0.241189 0.08737,-0.470073 -0.0201,-0.681319 z"
         id="path976"
         style="fill:#ffbb00;fill-opacity:1;stroke-width:0.0410187"
         inkscape:connector-curvature="0" />
      <path
         d="m 34.996905,26.967575 c -0.641564,0.334412 -1.390946,0.739976 -2.188351,0.739976 -0.796994,0 -1.426632,-0.368348 -1.879479,-0.727261 -0.226424,-0.179251 -0.410188,-0.357682 -0.548831,-0.487301 -0.240548,-0.189876 -0.211734,-0.456196 -0.112903,-0.448334 0.16566,0.02068 0.190707,0.238798 0.295026,0.336353 0.141104,0.13208 0.317895,0.303128 0.532013,0.472945 0.428236,0.339224 0.999217,0.669424 1.714174,0.669424 0.713727,0 1.546889,-0.419012 2.05545,-0.70429 0.288125,-0.161623 0.654752,-0.451332 0.953956,-0.670959 0.228915,-0.168031 0.220567,-0.370366 0.409576,-0.348337 0.189009,0.02203 0.04919,0.223956 -0.215503,0.45496 -0.264692,0.231004 -0.678786,0.537507 -1.015128,0.712824 z"
         id="path978"
         inkscape:connector-curvature="0"
         style="fill:#202020;fill-opacity:1;stroke-width:0.0410187"
         sodipodi:nodetypes="sscccccssszzs" />
      <path
         d="m 40.368313,39.52953 c -0.01149,0.06276 -0.02092,0.127158 -0.02789,0.191967 -0.100906,0.03528 -0.201812,0.07958 -0.303539,0.134952 -0.632099,0.346197 -0.977477,0.973782 -1.169445,1.744153 -0.191557,0.769509 -0.246933,1.699402 -0.299437,2.744966 v 8.21e-4 c -0.03241,0.52549 -0.248984,1.236712 -0.468024,1.989855 -2.205989,1.573843 -5.267629,2.255573 -7.867398,0.481107 -0.17597,-0.278516 -0.378193,-0.554572 -0.586158,-0.826935 -0.132901,-0.173878 -0.269493,-0.346608 -0.404855,-0.517204 0.266622,4.1e-4 0.493455,-0.04352 0.676809,-0.126338 0.228065,-0.103777 0.388038,-0.269492 0.467614,-0.48283 0.158333,-0.426184 -8.2e-4,-1.027517 -0.508222,-1.714579 -0.507402,-0.686652 -1.366745,-1.461494 -2.629303,-2.235925 v -4.1e-4 c -0.379449,-0.257323 -0.605095,-0.867085 -0.617332,-1.444225 0.0402,-1.420927 0.379423,-2.870115 0.949174,-4.225781 0.82981,-1.880704 2.565313,-5.142916 2.703136,-7.742676 0.07137,0.05168 0.315435,0.216578 0.424134,0.278516 4.1e-4,4.1e-4 4.1e-4,4.1e-4 8.21e-4,4.1e-4 0.318305,0.187456 0.557445,0.46146 0.867136,0.710443 0.310512,0.249393 0.69814,0.464741 1.283887,0.498787 0.0562,0.0033 0.111161,0.0049 0.164896,0.0049 0.603796,0 1.074691,-0.19689 1.466831,-0.421262 0.426226,-0.24365 0.76664,-0.513553 1.089499,-0.61856 4.1e-4,-4.11e-4 8.2e-4,-4.11e-4 0.0012,-4.11e-4 0.682142,-0.213297 1.223999,-0.590668 1.532419,-1.030388 0.529963,2.088669 1.762166,5.105589 2.55428,6.577748 0.421262,0.780995 1.258824,2.440608 1.620651,4.440267 0.173286,0.844754 -0.6621,0.698856 -0.920884,1.588632 z"
         id="path980"
         inkscape:connector-curvature="0"
         style="fill:#ffffff;stroke-width:0.0410187"
         sodipodi:nodetypes="ccccccccccccccccccccccsccccccc" />
      <path
         d="m 37.114293,23.371061 c 0.0033,0.413878 -0.06809,0.766228 -0.225193,1.125962 -0.08942,0.205093 -0.192337,0.377371 -0.315803,0.526679 -0.04188,-0.0201 -0.08532,-0.03938 -0.130481,-0.05784 -0.156281,-0.06686 -0.294514,-0.121826 -0.41835,-0.168587 -0.123918,-0.04676 -0.220595,-0.07871 -0.320312,-0.113168 0.07223,-0.08737 0.214528,-0.190327 0.267484,-0.319536 0.0804,-0.194838 0.119774,-0.385164 0.127158,-0.611997 0,-0.009 0.0029,-0.01682 0.0029,-0.02748 0.0045,-0.217399 -0.0242,-0.403213 -0.08778,-0.59354 -0.06645,-0.19976 -0.15099,-0.343325 -0.273185,-0.46269 -0.122646,-0.119364 -0.244882,-0.173509 -0.391729,-0.178431 -0.007,-4.1e-4 -0.01354,-4.1e-4 -0.02051,-4.1e-4 -0.137823,4.1e-4 -0.257597,0.04799 -0.381515,0.151359 -0.13003,0.108699 -0.226424,0.247752 -0.306779,0.44136 -0.07999,0.193608 -0.119365,0.385575 -0.1272,0.613639 -0.0012,0.009 -0.0012,0.01682 -0.0012,0.02584 -0.0029,0.125517 0.0053,0.240369 0.02461,0.35194 -0.282209,-0.140694 -0.64326,-0.243284 -0.892654,-0.302761 -0.01436,-0.107879 -0.02256,-0.219039 -0.02502,-0.335532 v -0.03158 c -0.0045,-0.412647 0.06317,-0.766638 0.221911,-1.125961 0.158743,-0.359734 0.355223,-0.618151 0.631648,-0.828576 0.276877,-0.210016 0.548872,-0.30641 0.870828,-0.309691 h 0.01518 c 0.315024,0 0.584518,0.0927 0.861394,0.293283 0.280979,0.204273 0.483611,0.459409 0.646866,0.816271 0.159973,0.347838 0.237089,0.687882 0.244923,1.091095 -4.1e-5,0.01067 -4.1e-5,0.01969 0.0028,0.03035 z"
         id="path982"
         inkscape:connector-curvature="0"
         style="fill:#ffffff;stroke-width:0.0410187"
         sodipodi:nodetypes="ccccccccccccccccccccccccscccc" />
      <path
         d="m 32.352836,23.783298 c -0.04143,0.0119 -0.08163,0.02461 -0.121416,0.03815 -0.225603,0.07794 -0.404726,0.163945 -0.577825,0.278387 0.01682,-0.119774 0.01928,-0.241189 0.0062,-0.376961 -0.0012,-0.0074 -0.0012,-0.01354 -0.0012,-0.02092 -0.01805,-0.180072 -0.0562,-0.331021 -0.119775,-0.48361 -0.06768,-0.158742 -0.143566,-0.270723 -0.243241,-0.356862 -0.09024,-0.07794 -0.17556,-0.114032 -0.269904,-0.113211 -0.0094,0 -0.01928,4.1e-4 -0.02912,0.0012 -0.105828,0.009 -0.193608,0.06071 -0.276876,0.162024 -0.08286,0.100906 -0.137413,0.226423 -0.176791,0.392958 -0.03938,0.166126 -0.04963,0.32938 -0.03323,0.516835 0,0.0074 0.0016,0.01354 0.0016,0.02092 0.01805,0.181713 0.05456,0.332662 0.119365,0.485251 0.06645,0.157101 0.143565,0.269082 0.243241,0.355221 0.01682,0.01436 0.03323,0.02748 0.04963,0.03897 -0.103368,0.07999 -0.172818,0.136721 -0.258137,0.199069 -0.05455,0.03979 -0.119365,0.08737 -0.194839,0.143155 C 30.306,24.90967 30.177611,24.716062 30.06522,24.460516 29.932319,24.158619 29.861356,23.856312 29.840027,23.499449 v -0.0029 c -0.01969,-0.356862 0.01518,-0.663681 0.113211,-0.981165 0.09845,-0.317485 0.229705,-0.547189 0.420443,-0.735875 0.190327,-0.189096 0.382294,-0.284259 0.61364,-0.296154 0.01805,-8.21e-4 0.03569,-0.0012 0.05332,-0.0012 0.209605,4.1e-4 0.396651,0.07014 0.59026,0.224782 0.210016,0.167767 0.368758,0.382294 0.501659,0.684601 0.133311,0.302308 0.204273,0.604615 0.223962,0.961477 v 0.0029 c 0.0094,0.149718 0.0082,0.290822 -0.0037,0.427414 z"
         id="path984"
         inkscape:connector-curvature="0"
         style="fill:#ffffff;stroke-width:0.0410187"
         sodipodi:nodetypes="cccccccccccccccccccccccccccccc" />
      <path
         style="fill:#000000;fill-opacity:1;stroke-width:0.00256367"
         d="m 33.838017,24.86007 c -0.04419,-0.0092 -0.05887,-0.01711 -0.118996,-0.06385 -0.04024,-0.03128 -0.06522,-0.04751 -0.08579,-0.05573 -0.0074,-0.003 -0.0423,-0.0126 -0.07756,-0.02142 -0.088,-0.02202 -0.115617,-0.03379 -0.134121,-0.05715 -0.01626,-0.02052 -0.01949,-0.03714 -0.01091,-0.05604 0.02996,-0.06597 0.166221,-0.09679 0.304334,-0.06884 0.06003,0.01215 0.13158,0.0373 0.197063,0.06927 0.10705,0.05226 0.153676,0.110837 0.13617,0.171057 -0.0077,0.02641 -0.03758,0.05245 -0.07754,0.06753 -0.04171,0.01574 -0.09875,0.02227 -0.132654,0.01519 z"
         id="path1132"
         inkscape:connector-curvature="0" />
      <path
         style="fill:#000000;fill-opacity:1;stroke-width:0.00725116"
         d="m 32.567952,27.693216 c -0.445608,-0.04121 -0.910744,-0.215331 -1.341465,-0.502173 -0.240094,-0.159892 -0.418602,-0.305884 -0.751068,-0.614257 -0.191793,-0.177894 -0.224933,-0.217733 -0.257216,-0.309213 -0.02954,-0.08372 -0.02211,-0.172993 0.01733,-0.208133 0.03214,-0.02863 0.113291,0.0071 0.16173,0.07118 0.01467,0.01941 0.04466,0.06826 0.06664,0.108538 0.02198,0.04028 0.04966,0.0866 0.06151,0.102932 0.02184,0.03009 0.242032,0.238485 0.374769,0.354686 0.58657,0.513496 1.142786,0.776113 1.743904,0.823382 0.393471,0.03094 0.852717,-0.06384 1.386633,-0.286165 0.168703,-0.07025 0.255903,-0.110971 0.484166,-0.226102 0.313994,-0.158371 0.47416,-0.252723 0.710614,-0.418613 0.188031,-0.131918 0.616275,-0.454304 0.66555,-0.501033 0.02907,-0.02757 0.07871,-0.08514 0.110305,-0.127942 0.06229,-0.08437 0.09288,-0.113502 0.148279,-0.141188 0.0445,-0.02224 0.07852,-0.0227 0.120217,-0.0016 0.04299,0.02174 0.04995,0.04534 0.02939,0.09978 -0.04757,0.125944 -0.278754,0.346128 -0.667672,0.635903 -0.159284,0.118679 -0.323163,0.228992 -0.469896,0.316306 -0.195333,0.116232 -0.693451,0.370335 -0.940455,0.47975 -0.448718,0.198768 -0.826439,0.309754 -1.145683,0.336638 -0.127981,0.01078 -0.424113,0.01506 -0.507581,0.0073 z"
         id="path1134"
         inkscape:connector-curvature="0" />
      <path
         style="fill:#000000;fill-opacity:1;stroke-width:0.00256367"
         d="m 32.164601,24.858893 c 0.04419,-0.0092 0.05887,-0.01711 0.118996,-0.06385 0.04024,-0.03128 0.06522,-0.04751 0.08579,-0.05573 0.0074,-0.003 0.0423,-0.0126 0.07756,-0.02142 0.088,-0.02202 0.115617,-0.03379 0.134121,-0.05715 0.01626,-0.02052 0.01949,-0.03714 0.01091,-0.05604 -0.02996,-0.06597 -0.166221,-0.09679 -0.304334,-0.06884 -0.06003,0.01215 -0.13158,0.0373 -0.197063,0.06927 -0.10705,0.05226 -0.153676,0.110837 -0.13617,0.171057 0.0077,0.02641 0.03758,0.05245 0.07754,0.06753 0.04171,0.01574 0.09875,0.02227 0.132654,0.01519 z"
         id="path2046"
         inkscape:connector-curvature="0" />
    </g>
  </g>
</svg>
